<svg xmlns="http://www.w3.org/2000/svg" width="24" height="23.987" viewBox="0 0 24 23.987">
  <g id="noun-offer-4147429" transform="translate(-154.84 -84.211)">
    <path id="Path_19864" data-name="Path 19864" d="M166.806,108.2a3.659,3.659,0,0,1-2.609-1.064l-.858-.858a1.635,1.635,0,0,0-1.167-.481h-1.2a3.693,3.693,0,0,1-3.708-3.708V100.85a1.635,1.635,0,0,0-.481-1.167l-.858-.858a3.73,3.73,0,0,1,0-5.253l.858-.858a1.635,1.635,0,0,0,.481-1.167v-1.2a3.693,3.693,0,0,1,3.708-3.708h1.236a1.635,1.635,0,0,0,1.167-.481l.858-.858a3.72,3.72,0,0,1,5.219-.034l.893.893a1.635,1.635,0,0,0,1.167.481h1.2a3.693,3.693,0,0,1,3.708,3.708v1.2a1.635,1.635,0,0,0,.481,1.167l.858.858a3.73,3.73,0,0,1,0,5.253l-.858.858a1.635,1.635,0,0,0-.481,1.167v1.236a3.693,3.693,0,0,1-3.708,3.708h-1.236a1.635,1.635,0,0,0-1.167.481l-.858.858a3.8,3.8,0,0,1-2.644,1.064Zm-1.167-2.541a1.658,1.658,0,0,0,2.335,0l.858-.858a3.659,3.659,0,0,1,2.609-1.064h1.236a1.648,1.648,0,0,0,1.648-1.648V100.85a3.659,3.659,0,0,1,1.064-2.609l.858-.858a1.637,1.637,0,0,0,0-2.335l-.858-.859a3.718,3.718,0,0,1-1.064-2.609v-1.2a1.671,1.671,0,0,0-1.648-1.648h-1.2a3.659,3.659,0,0,1-2.609-1.064l-.858-.858a1.7,1.7,0,0,0-2.335,0l-.893.824a3.659,3.659,0,0,1-2.609,1.064h-1.236a1.671,1.671,0,0,0-1.648,1.648v1.2a3.659,3.659,0,0,1-1.064,2.609l-.858.858a1.637,1.637,0,0,0,0,2.335l.858.858a3.659,3.659,0,0,1,1.064,2.609v1.236a1.671,1.671,0,0,0,1.648,1.648h1.2a3.659,3.659,0,0,1,2.609,1.064Z" transform="translate(0 0)" fill="#c4c6cf"/>
    <path id="Path_19865" data-name="Path 19865" d="M284.38,221.426a1.021,1.021,0,0,1-.715-1.736l6.024-6.024a1.011,1.011,0,1,1,1.429,1.429l-6.023,6.058a.9.9,0,0,1-.715.272Z" transform="translate(-120.603 -121.196)" fill="#c4c6cf"/>
    <path id="Path_19866" data-name="Path 19866" d="M275.83,207.818a1.54,1.54,0,0,1-.545-.1,1.333,1.333,0,0,1-.783-.783,1.5,1.5,0,0,1,0-1.089,1.428,1.428,0,0,1,.306-.476,1.48,1.48,0,0,1,2.042,0,1.441,1.441,0,0,1,.408,1.021,1.32,1.32,0,0,1-.442,1.021,1.425,1.425,0,0,1-.476.306,1.041,1.041,0,0,1-.51.1" transform="translate(-112.221 -113.336)" fill="#c4c6cf"/>
    <path id="Path_19867" data-name="Path 19867" d="M379.99,311.418a1.54,1.54,0,0,1-.545-.1,1.333,1.333,0,0,1-.783-.783,1.5,1.5,0,0,1,0-1.089,1.429,1.429,0,0,1,.306-.476,1.48,1.48,0,0,1,2.042,0,1.441,1.441,0,0,1,.408,1.021,1.32,1.32,0,0,1-.443,1.021,1.426,1.426,0,0,1-.476.306,1.246,1.246,0,0,1-.51.1" transform="translate(-209.987 -210.576)" fill="#c4c6cf"/>
  </g>
</svg>
