<svg xmlns="http://www.w3.org/2000/svg" width="19.312" height="24.958" viewBox="0 0 19.312 24.958">
  <g id="fi-rr-user" transform="translate(0)" opacity="0.5">
    <path id="Path_18429" data-name="Path 18429" d="M12.536,12.479a6.393,6.393,0,0,0,6.536-6.239A6.393,6.393,0,0,0,12.536,0,6.393,6.393,0,0,0,6,6.239a6.4,6.4,0,0,0,6.536,6.239Zm0-10.4a4.262,4.262,0,0,1,4.358,4.16,4.262,4.262,0,0,1-4.358,4.16,4.262,4.262,0,0,1-4.358-4.16,4.262,4.262,0,0,1,4.358-4.16Z" transform="translate(-2.88)" fill="#8a8d9f"/>
    <path id="Path_18430" data-name="Path 18430" d="M12.656,14A9.522,9.522,0,0,0,3,23.359a1.073,1.073,0,0,0,2.146,0,7.4,7.4,0,0,1,7.51-7.279,7.4,7.4,0,0,1,7.51,7.279,1.073,1.073,0,0,0,2.146,0A9.522,9.522,0,0,0,12.656,14Z" transform="translate(-3 0.559)" fill="#8a8d9f"/>
  </g>
</svg>
